PathFileType   4   (X/Y/Z)
DataRate  CameraRate  NumFrames  NumMarkers  Units  OrigDataRate  OrigDataStartFrame  OrigNumFrames  
  120.0      120.0        4         37         mm      120.0          57        151
Frame#      Time                    midhip                           hip_r                           hip_l                          knee_r                          knee_l                         ankle_r                         ankle_l                         midasis                          asis_r                          asis_l                          psis_r                          psis_l                    epicondLat_r                    epicondLat_l                    epicondMed_r                    epicondMed_l                  malleolusLat_r                  malleolusLat_l                 malleolusMedv_r                 malleolusMedv_l                    sternalnotch                  xyphoidprocess                            neck                           toe_r                           toe_l                     thighwand_r                     thighwand_l                     upperleg1_r                     upperleg1_l                     upperleg2_r                     upperleg2_l                     shankwand_r                     shankwand_l                     lowerleg1_r                     lowerleg1_l                   subclavicle_r                   subclavicle_l            
              X1          Y1          Z1          X2          Y2          Z2          X3          Y3          Z3          X4          Y4          Z4          X5          Y5          Z5          X6          Y6          Z6          X7          Y7          Z7          X8          Y8          Z8          X9          Y9          Z9          X10          Y10          Z10          X11          Y11          Z11          X12          Y12          Z12          X13          Y13          Z13          X14          Y14          Z14          X15          Y15          Z15          X16          Y16          Z16          X17          Y17          Z17          X18          Y18          Z18          X19          Y19          Z19          X20          Y20          Z20          X21          Y21          Z21          X22          Y22          Z22          X23          Y23          Z23          X24          Y24          Z24          X25          Y25          Z25          X26          Y26          Z26          X27          Y27          Z27          X28          Y28          Z28          X29          Y29          Z29          X30          Y30          Z30          X31          Y31          Z31          X32          Y32          Z32          X33          Y33          Z33          X34          Y34          Z34          X35          Y35          Z35          X36          Y36          Z36          X37          Y37          Z37          

	57	0.65000	-1822.556	755.641	246.977	-1835.050	753.981	303.005	-1810.063	757.302	190.949	-1736.655	411.303	332.414	-1934.780	429.268	201.490	-1641.651	74.224	332.482	-2045.843	77.318	211.004	-1788.818	828.388	255.961	-1797.666	831.356	365.660	-1779.970	825.420	146.262	-1967.955	858.005	280.274	-1961.007	855.744	229.332	-1710.810	425.828	392.082	-1918.055	407.552	143.249	-1712.589	412.414	277.832	-1913.791	414.214	258.823	-1656.333	71.324	366.866	-2052.542	78.692	175.151	-1631.985	73.581	299.968	-2050.391	80.409	244.439	-1793.471	1179.086	246.183	-1784.213	1077.441	241.201	-1901.947	1249.608	239.099	-1562.254	77.123	361.964	-1962.507	47.385	208.241	-1654.800	599.709	368.425	-1779.213	535.347	121.193	-1723.454	611.987	396.848	-1788.537	583.526	187.827	-1710.379	554.775	395.231	-1809.550	529.981	196.089	-1562.641	217.609	385.916	-2017.800	172.115	81.733	-1627.173	187.544	350.483	-2020.671	166.755	162.413	-1798.946	1177.239	303.344	-1783.276	1181.242	195.948
	58	0.65833	-1817.036	755.071	247.502	-1829.279	753.334	303.583	-1804.793	756.809	191.422	-1730.407	410.377	332.428	-1930.354	428.042	201.310	-1632.027	74.117	332.972	-2045.310	78.160	210.727	-1783.170	827.736	256.458	-1791.543	830.549	366.244	-1774.797	824.923	146.671	-1962.204	857.545	281.515	-1955.449	855.229	230.505	-1704.993	425.072	392.184	-1914.803	407.477	143.227	-1706.456	411.966	277.246	-1907.990	412.962	259.555	-1646.461	71.134	367.454	-2052.024	79.631	174.880	-1622.684	73.492	300.381	-2049.933	81.223	244.174	-1788.030	1178.375	247.382	-1778.622	1076.770	241.896	-1896.705	1248.866	240.383	-1552.618	77.970	361.918	-1962.426	47.505	208.015	-1648.952	598.595	368.630	-1775.329	534.701	120.968	-1717.703	610.654	397.238	-1784.168	582.786	187.532	-1704.581	554.029	395.343	-1804.810	529.303	195.924	-1554.316	218.457	385.566	-2016.538	172.812	81.515	-1618.725	187.441	350.783	-2019.498	167.449	162.301	-1793.460	1176.244	304.387	-1777.878	1180.788	197.303
	59	0.66667	-1811.466	754.492	248.058	-1823.452	752.684	304.192	-1799.480	756.300	191.925	-1725.363	410.029	332.462	-1926.223	428.099	201.161	-1623.137	73.901	333.327	-2044.749	79.068	210.425	-1777.436	827.090	256.976	-1785.323	829.752	366.886	-1769.548	824.428	147.066	-1956.561	857.116	282.615	-1949.819	854.746	231.699	-1699.179	424.296	392.300	-1911.353	407.388	143.229	-1701.906	412.521	275.583	-1902.518	412.227	259.467	-1637.297	70.859	367.917	-2051.476	80.644	174.585	-1614.586	73.499	300.526	-2049.336	82.225	243.882	-1782.613	1177.703	248.354	-1773.265	1076.094	242.832	-1891.187	1248.125	242.144	-1543.743	78.570	361.707	-1962.378	47.627	207.747	-1643.022	597.489	368.721	-1771.310	534.058	120.792	-1711.837	609.815	397.970	-1779.121	581.962	187.150	-1698.901	553.175	395.331	-1799.642	528.885	195.398	-1546.386	218.951	385.054	-2015.205	173.568	81.346	-1610.951	187.165	351.267	-2018.226	168.084	161.933	-1787.642	1175.590	305.419	-1772.813	1180.100	198.180
	60	0.67500	-1805.802	753.886	248.649	-1817.530	752.015	304.835	-1794.073	755.758	192.463	-1720.949	409.682	332.582	-1923.104	428.841	201.064	-1615.048	73.556	333.534	-2044.157	80.050	210.098	-1771.612	826.447	257.523	-1779.007	828.960	367.571	-1764.217	823.934	147.475	-1951.011	856.710	283.582	-1944.124	854.298	232.919	-1693.356	423.511	392.449	-1907.706	407.280	143.277	-1698.052	412.480	274.861	-1898.255	412.712	260.279	-1628.908	70.479	368.243	-2050.889	81.741	174.264	-1607.325	73.419	300.515	-2048.549	83.458	243.536	-1777.255	1177.096	249.437	-1768.011	1075.458	244.284	-1885.624	1247.392	244.077	-1535.677	78.799	361.317	-1962.339	47.760	207.435	-1637.008	596.397	368.693	-1767.140	533.435	120.664	-1705.595	609.323	398.505	-1773.812	581.101	186.779	-1693.043	552.159	395.415	-1794.765	528.344	195.210	-1538.879	219.061	384.375	-2013.767	174.395	81.230	-1603.696	186.863	351.582	-2016.641	169.095	161.479	-1781.887	1175.230	306.549	-1767.803	1179.271	199.180
